<?xml version="1.0" encoding="UTF-8" standalone="no"?>
<!DOCTYPE svg PUBLIC "-//W3C//DTD SVG 1.1//EN"
 "http://www.w3.org/Graphics/SVG/1.1/DTD/svg11.dtd">
<!-- Generated by graphviz version 7.1.0 (20230121.1956)
 -->
<!-- Title: G Pages: 1 -->
<svg width="439pt" height="521pt"
 viewBox="0.00 0.00 439.40 520.98" xmlns="http://www.w3.org/2000/svg" xmlns:xlink="http://www.w3.org/1999/xlink">
<g id="graph0" class="graph" transform="scale(1 1) rotate(0) translate(4 516.98)">
<title>G</title><style>.edge>path:hover{stroke-width:8}</style>
<polygon fill="white" stroke="none" points="-4,4 -4,-516.98 435.4,-516.98 435.4,4 -4,4"/>
<!-- notifications_admin -->
<g id="node1" class="node">
<title>notifications_admin</title><style>.edge>path:hover{stroke-width:8}</style>
<ellipse fill="#a65959" stroke="black" cx="65.21" cy="-334.92" rx="50.82" ry="21.43"/>
<text text-anchor="middle" x="65.21" y="-337.92" font-family="Helvetica,sans-Serif" font-size="10.00" fill="#ffffff">notifications.</text>
<text text-anchor="middle" x="65.21" y="-326.92" font-family="Helvetica,sans-Serif" font-size="10.00" fill="#ffffff">admin</text>
</g>
<!-- notifications_dto -->
<g id="node2" class="node">
<title>notifications_dto</title><style>.edge>path:hover{stroke-width:8}</style>
<ellipse fill="#ce3b3b" stroke="black" cx="220.21" cy="-413.35" rx="50.82" ry="21.43"/>
<text text-anchor="middle" x="220.21" y="-416.35" font-family="Helvetica,sans-Serif" font-size="10.00" fill="#ffffff">notifications.</text>
<text text-anchor="middle" x="220.21" y="-405.35" font-family="Helvetica,sans-Serif" font-size="10.00" fill="#ffffff">dto</text>
</g>
<!-- notifications_mappers -->
<g id="node7" class="node">
<title>notifications_mappers</title><style>.edge>path:hover{stroke-width:8}</style>
<ellipse fill="#b03a3a" stroke="black" cx="340.21" cy="-256.49" rx="50.82" ry="21.43"/>
<text text-anchor="middle" x="340.21" y="-259.49" font-family="Helvetica,sans-Serif" font-size="10.00" fill="#ffffff">notifications.</text>
<text text-anchor="middle" x="340.21" y="-248.49" font-family="Helvetica,sans-Serif" font-size="10.00" fill="#ffffff">mappers</text>
</g>
<!-- notifications_dto&#45;&gt;notifications_mappers -->
<g id="edge1" class="edge">
<title>notifications_dto&#45;&gt;notifications_mappers</title><style>.edge>path:hover{stroke-width:8}</style>
<path fill="none" stroke="black" d="M253.66,-396.96C286.87,-380.76 333.75,-354.99 340.21,-335.92"/>
<path fill="none" stroke="black" d="M340.21,-333.92C345,-319.78 345.58,-303.31 344.72,-289.29"/>
<polygon fill="#ce3b3b" stroke="black" points="348.24,-289.34 343.86,-279.69 341.27,-289.97 348.24,-289.34"/>
</g>
<!-- notifications_mediums -->
<g id="node8" class="node">
<title>notifications_mediums</title><style>.edge>path:hover{stroke-width:8}</style>
<ellipse fill="#ac4949" stroke="black" cx="144.21" cy="-256.49" rx="50.82" ry="21.43"/>
<text text-anchor="middle" x="144.21" y="-259.49" font-family="Helvetica,sans-Serif" font-size="10.00" fill="#ffffff">notifications.</text>
<text text-anchor="middle" x="144.21" y="-248.49" font-family="Helvetica,sans-Serif" font-size="10.00" fill="#ffffff">mediums</text>
</g>
<!-- notifications_dto&#45;&gt;notifications_mediums -->
<g id="edge2" class="edge">
<title>notifications_dto&#45;&gt;notifications_mediums</title><style>.edge>path:hover{stroke-width:8}</style>
<path fill="none" stroke="black" d="M195.99,-394.31C184.31,-384.33 171.14,-370.96 163.21,-356.13 152.25,-335.66 147.56,-309.81 145.57,-289.7"/>
<polygon fill="#ce3b3b" stroke="black" points="149.06,-289.52 144.79,-279.83 142.09,-290.08 149.06,-289.52"/>
</g>
<!-- notifications_types -->
<g id="node12" class="node">
<title>notifications_types</title><style>.edge>path:hover{stroke-width:8}</style>
<ellipse fill="#e90c0c" stroke="black" cx="223.21" cy="-334.92" rx="50.82" ry="21.43"/>
<text text-anchor="middle" x="223.21" y="-337.92" font-family="Helvetica,sans-Serif" font-size="10.00" fill="#ffffff">notifications.</text>
<text text-anchor="middle" x="223.21" y="-326.92" font-family="Helvetica,sans-Serif" font-size="10.00" fill="#ffffff">types</text>
</g>
<!-- notifications_dto&#45;&gt;notifications_types -->
<g id="edge3" class="edge">
<title>notifications_dto&#45;&gt;notifications_types</title><style>.edge>path:hover{stroke-width:8}</style>
<path fill="none" stroke="black" d="M221.03,-391.46C221.31,-384.3 221.63,-376.11 221.94,-368.26"/>
<polygon fill="#ce3b3b" stroke="black" points="225.43,-368.42 222.33,-358.29 218.44,-368.14 225.43,-368.42"/>
</g>
<!-- notifications_entities -->
<g id="node3" class="node">
<title>notifications_entities</title><style>.edge>path:hover{stroke-width:8}</style>
<ellipse fill="#cc3333" stroke="black" cx="340.21" cy="-413.35" rx="50.82" ry="21.43"/>
<text text-anchor="middle" x="340.21" y="-416.35" font-family="Helvetica,sans-Serif" font-size="10.00" fill="#ffffff">notifications.</text>
<text text-anchor="middle" x="340.21" y="-405.35" font-family="Helvetica,sans-Serif" font-size="10.00" fill="#ffffff">entities</text>
</g>
<!-- notifications_factories -->
<g id="node6" class="node">
<title>notifications_factories</title><style>.edge>path:hover{stroke-width:8}</style>
<ellipse fill="#b03a3a" stroke="black" cx="223.21" cy="-178.07" rx="50.82" ry="21.43"/>
<text text-anchor="middle" x="223.21" y="-181.07" font-family="Helvetica,sans-Serif" font-size="10.00" fill="#ffffff">notifications.</text>
<text text-anchor="middle" x="223.21" y="-170.07" font-family="Helvetica,sans-Serif" font-size="10.00" fill="#ffffff">factories</text>
</g>
<!-- notifications_entities&#45;&gt;notifications_factories -->
<g id="edge4" class="edge">
<title>notifications_entities&#45;&gt;notifications_factories</title><style>.edge>path:hover{stroke-width:8}</style>
<path fill="none" stroke="black" d="M330.03,-392.05C309.46,-351.03 262.83,-258.07 238.55,-209.66"/>
<polygon fill="#cc3333" stroke="black" points="241.74,-208.2 234.12,-200.83 235.48,-211.34 241.74,-208.2"/>
</g>
<!-- notifications_entities&#45;&gt;notifications_mappers -->
<g id="edge5" class="edge">
<title>notifications_entities&#45;&gt;notifications_mappers</title><style>.edge>path:hover{stroke-width:8}</style>
<path fill="none" stroke="black" d="M336.69,-391.65C334.85,-375.94 334.08,-354.02 340.21,-335.92"/>
</g>
<!-- notifications_entities&#45;&gt;notifications_types -->
<g id="edge6" class="edge">
<title>notifications_entities&#45;&gt;notifications_types</title><style>.edge>path:hover{stroke-width:8}</style>
<path fill="none" stroke="black" d="M313.37,-394.81C297.31,-384.33 276.71,-370.87 259.25,-359.46"/>
<polygon fill="#cc3333" stroke="black" points="261.48,-356.74 251.19,-354.2 257.65,-362.6 261.48,-356.74"/>
</g>
<!-- notifications_enums -->
<g id="node4" class="node">
<title>notifications_enums</title><style>.edge>path:hover{stroke-width:8}</style>
<ellipse fill="#ce3b3b" stroke="black" cx="340.21" cy="-491.77" rx="50.82" ry="21.43"/>
<text text-anchor="middle" x="340.21" y="-494.77" font-family="Helvetica,sans-Serif" font-size="10.00" fill="#ffffff">notifications.</text>
<text text-anchor="middle" x="340.21" y="-483.77" font-family="Helvetica,sans-Serif" font-size="10.00" fill="#ffffff">enums</text>
</g>
<!-- notifications_enums&#45;&gt;notifications_entities -->
<g id="edge7" class="edge">
<title>notifications_enums&#45;&gt;notifications_entities</title><style>.edge>path:hover{stroke-width:8}</style>
<path fill="none" stroke="black" d="M340.21,-469.89C340.21,-462.73 340.21,-454.54 340.21,-446.68"/>
<polygon fill="#ce3b3b" stroke="black" points="343.71,-446.72 340.21,-436.72 336.71,-446.72 343.71,-446.72"/>
</g>
<!-- notifications_models -->
<g id="node9" class="node">
<title>notifications_models</title><style>.edge>path:hover{stroke-width:8}</style>
<ellipse fill="#c04040" stroke="black" cx="65.21" cy="-413.35" rx="50.82" ry="21.43"/>
<text text-anchor="middle" x="65.21" y="-416.35" font-family="Helvetica,sans-Serif" font-size="10.00" fill="#ffffff">notifications.</text>
<text text-anchor="middle" x="65.21" y="-405.35" font-family="Helvetica,sans-Serif" font-size="10.00" fill="#ffffff">models</text>
</g>
<!-- notifications_enums&#45;&gt;notifications_models -->
<g id="edge8" class="edge">
<title>notifications_enums&#45;&gt;notifications_models</title><style>.edge>path:hover{stroke-width:8}</style>
<path fill="none" stroke="black" d="M298.44,-479.16C250.05,-465.71 170.24,-443.53 117.69,-428.93"/>
<polygon fill="#ce3b3b" stroke="black" points="118.95,-425.65 108.37,-426.34 117.07,-432.39 118.95,-425.65"/>
</g>
<!-- notifications_services -->
<g id="node11" class="node">
<title>notifications_services</title><style>.edge>path:hover{stroke-width:8}</style>
<ellipse fill="#964040" stroke="black" cx="261.21" cy="-99.64" rx="50.82" ry="21.43"/>
<text text-anchor="middle" x="261.21" y="-102.64" font-family="Helvetica,sans-Serif" font-size="10.00" fill="#ffffff">notifications.</text>
<text text-anchor="middle" x="261.21" y="-91.64" font-family="Helvetica,sans-Serif" font-size="10.00" fill="#ffffff">services</text>
</g>
<!-- notifications_enums&#45;&gt;notifications_services -->
<g id="edge9" class="edge">
<title>notifications_enums&#45;&gt;notifications_services</title><style>.edge>path:hover{stroke-width:8}</style>
<path fill="none" stroke="black" d="M367.25,-473.34C379.79,-463.61 393.4,-450.27 400.21,-434.56 435.43,-353.29 447.18,-310.37 400.21,-235.28 373.58,-192.71 321.63,-225.37 302.21,-179.07"/>
</g>
<!-- notifications_facades -->
<g id="node5" class="node">
<title>notifications_facades</title><style>.edge>path:hover{stroke-width:8}</style>
<ellipse fill="#8b4b4b" stroke="black" cx="261.21" cy="-21.21" rx="50.82" ry="21.43"/>
<text text-anchor="middle" x="261.21" y="-24.21" font-family="Helvetica,sans-Serif" font-size="10.00" fill="#ffffff">notifications.</text>
<text text-anchor="middle" x="261.21" y="-13.21" font-family="Helvetica,sans-Serif" font-size="10.00" fill="#ffffff">facades</text>
</g>
<!-- notifications_factories&#45;&gt;notifications_facades -->
<g id="edge10" class="edge">
<title>notifications_factories&#45;&gt;notifications_facades</title><style>.edge>path:hover{stroke-width:8}</style>
<path fill="none" stroke="black" d="M201.93,-158.41C186.89,-142.87 171.19,-120.18 182.21,-100.64"/>
</g>
<!-- notifications_factories&#45;&gt;notifications_services -->
<g id="edge11" class="edge">
<title>notifications_factories&#45;&gt;notifications_services</title><style>.edge>path:hover{stroke-width:8}</style>
<path fill="none" stroke="black" d="M233.39,-156.59C237.3,-148.73 241.85,-139.58 246.12,-130.99"/>
<polygon fill="#b03a3a" stroke="black" points="249.14,-132.78 250.45,-122.27 242.87,-129.66 249.14,-132.78"/>
</g>
<!-- notifications_mappers&#45;&gt;notifications_facades -->
<g id="edge12" class="edge">
<title>notifications_mappers&#45;&gt;notifications_facades</title><style>.edge>path:hover{stroke-width:8}</style>
<path fill="none" stroke="black" d="M336.75,-234.82C334.94,-219.12 334.19,-197.2 340.21,-179.07"/>
</g>
<!-- notifications_mappers&#45;&gt;notifications_services -->
<g id="edge13" class="edge">
<title>notifications_mappers&#45;&gt;notifications_services</title><style>.edge>path:hover{stroke-width:8}</style>
<path fill="none" stroke="black" d="M329.32,-235.39C321.3,-220.16 310.4,-198.61 302.21,-179.07"/>
</g>
<!-- notifications_mediums&#45;&gt;notifications_factories -->
<g id="edge14" class="edge">
<title>notifications_mediums&#45;&gt;notifications_factories</title><style>.edge>path:hover{stroke-width:8}</style>
<path fill="none" stroke="black" d="M163.74,-236.6C173.25,-227.39 184.87,-216.15 195.31,-206.06"/>
<polygon fill="#ac4949" stroke="black" points="197.51,-208.79 202.27,-199.32 192.65,-203.76 197.51,-208.79"/>
</g>
<!-- notifications_models&#45;&gt;notifications_admin -->
<g id="edge15" class="edge">
<title>notifications_models&#45;&gt;notifications_admin</title><style>.edge>path:hover{stroke-width:8}</style>
<path fill="none" stroke="black" d="M65.21,-391.46C65.21,-384.3 65.21,-376.11 65.21,-368.26"/>
<polygon fill="#c04040" stroke="black" points="68.71,-368.29 65.21,-358.29 61.71,-368.29 68.71,-368.29"/>
</g>
<!-- notifications_repositories -->
<g id="node10" class="node">
<title>notifications_repositories</title><style>.edge>path:hover{stroke-width:8}</style>
<ellipse fill="#b83d3d" stroke="black" cx="103.21" cy="-178.07" rx="50.82" ry="21.43"/>
<text text-anchor="middle" x="103.21" y="-181.07" font-family="Helvetica,sans-Serif" font-size="10.00" fill="#ffffff">notifications.</text>
<text text-anchor="middle" x="103.21" y="-170.07" font-family="Helvetica,sans-Serif" font-size="10.00" fill="#ffffff">repositories</text>
</g>
<!-- notifications_models&#45;&gt;notifications_repositories -->
<g id="edge16" class="edge">
<title>notifications_models&#45;&gt;notifications_repositories</title><style>.edge>path:hover{stroke-width:8}</style>
<path fill="none" stroke="black" d="M38.17,-394.91C25.63,-385.18 12.02,-371.85 5.21,-356.13 -2.29,-338.83 -0.63,-331.64 5.21,-313.71 18.95,-271.47 51.49,-231.44 75.32,-206.17"/>
<polygon fill="#c04040" stroke="black" points="77.55,-208.9 81.98,-199.28 72.52,-204.04 77.55,-208.9"/>
</g>
<!-- notifications_repositories&#45;&gt;notifications_facades -->
<g id="edge17" class="edge">
<title>notifications_repositories&#45;&gt;notifications_facades</title><style>.edge>path:hover{stroke-width:8}</style>
<path fill="none" stroke="black" d="M128.34,-159.14C146.05,-145.18 168.9,-124.24 182.21,-100.64"/>
<path fill="none" stroke="black" d="M182.21,-98.64C193.44,-78.72 211.46,-60.71 227.46,-47.18"/>
<polygon fill="#b83d3d" stroke="black" points="229.37,-50.13 234.91,-41.1 224.95,-44.71 229.37,-50.13"/>
</g>
<!-- notifications_repositories&#45;&gt;notifications_services -->
<g id="edge18" class="edge">
<title>notifications_repositories&#45;&gt;notifications_services</title><style>.edge>path:hover{stroke-width:8}</style>
<path fill="none" stroke="black" d="M135.95,-161.23C159.78,-149.7 192.29,-133.98 218.21,-121.44"/>
<polygon fill="#b83d3d" stroke="black" points="219.67,-124.62 227.15,-117.11 216.62,-118.32 219.67,-124.62"/>
</g>
<!-- notifications_services&#45;&gt;notifications_facades -->
<g id="edge19" class="edge">
<title>notifications_services&#45;&gt;notifications_facades</title><style>.edge>path:hover{stroke-width:8}</style>
<path fill="none" stroke="black" d="M261.21,-77.76C261.21,-70.59 261.21,-62.4 261.21,-54.55"/>
<polygon fill="#964040" stroke="black" points="264.71,-54.59 261.21,-44.59 257.71,-54.59 264.71,-54.59"/>
</g>
<!-- notifications_types&#45;&gt;notifications_facades -->
<g id="edge20" class="edge">
<title>notifications_types&#45;&gt;notifications_facades</title><style>.edge>path:hover{stroke-width:8}</style>
<path fill="none" stroke="black" d="M340.21,-177.07C354.27,-134.69 342.77,-117.52 321.21,-78.43 314.76,-66.73 305,-56.07 295.22,-47.26"/>
<polygon fill="#e90c0c" stroke="black" points="297.74,-44.81 287.86,-40.99 293.2,-50.14 297.74,-44.81"/>
<path fill="none" stroke="black" d="M223.21,-255.49C230.57,-193.82 323.66,-238.93 340.21,-179.07"/>
</g>
<!-- notifications_types&#45;&gt;notifications_factories -->
<g id="edge21" class="edge">
<title>notifications_types&#45;&gt;notifications_factories</title><style>.edge>path:hover{stroke-width:8}</style>
<path fill="none" stroke="black" d="M223.21,-255.49C224.94,-241.02 225.18,-224.9 224.9,-211.21"/>
<polygon fill="#e90c0c" stroke="black" points="228.4,-211.3 224.59,-201.42 221.41,-211.52 228.4,-211.3"/>
</g>
<!-- notifications_types&#45;&gt;notifications_mappers -->
<g id="edge22" class="edge">
<title>notifications_types&#45;&gt;notifications_mappers</title><style>.edge>path:hover{stroke-width:8}</style>
<path fill="none" stroke="black" d="M250.05,-316.39C266.1,-305.9 286.71,-292.44 304.16,-281.04"/>
<polygon fill="#e90c0c" stroke="black" points="305.77,-284.17 312.22,-275.77 301.94,-278.31 305.77,-284.17"/>
</g>
<!-- notifications_types&#45;&gt;notifications_mediums -->
<g id="edge23" class="edge">
<title>notifications_types&#45;&gt;notifications_mediums</title><style>.edge>path:hover{stroke-width:8}</style>
<path fill="none" stroke="black" d="M203.68,-315.03C194.16,-305.82 182.54,-294.58 172.11,-284.49"/>
<polygon fill="#e90c0c" stroke="black" points="174.77,-282.19 165.15,-277.75 169.9,-287.22 174.77,-282.19"/>
</g>
<!-- notifications_types&#45;&gt;notifications_repositories -->
<g id="edge24" class="edge">
<title>notifications_types&#45;&gt;notifications_repositories</title><style>.edge>path:hover{stroke-width:8}</style>
<path fill="none" stroke="black" d="M223.21,-255.49C225.39,-237.21 184.34,-214.3 149.66,-198.36"/>
<polygon fill="#e90c0c" stroke="black" points="151.1,-195.17 140.54,-194.27 148.23,-201.55 151.1,-195.17"/>
<path fill="none" stroke="black" d="M221.88,-313.08C221.22,-297.67 220.97,-276.2 223.21,-257.49"/>
</g>
<!-- notifications_types&#45;&gt;notifications_services -->
<g id="edge25" class="edge">
<title>notifications_types&#45;&gt;notifications_services</title><style>.edge>path:hover{stroke-width:8}</style>
<path fill="none" stroke="black" d="M302.21,-177.07C295.62,-161.35 286.84,-144.6 279.1,-130.79"/>
<polygon fill="#e90c0c" stroke="black" points="282.19,-129.14 274.19,-122.19 276.11,-132.61 282.19,-129.14"/>
<path fill="none" stroke="black" d="M223.21,-255.49C229,-206.98 321.1,-224.12 302.21,-179.07"/>
</g>
</g>
</svg>
